<svg xmlns="http://www.w3.org/2000/svg" width="178.563" height="31" viewBox="0 0 178.563 31">
  <defs>
    <style>
      .cls-1 {
        fill: #fff;
        fill-rule: evenodd;
      }
    </style>
  </defs>
  <path id="Твитер" class="cls-1" d="M162.865,0.228a15.692,15.692,0,1,1-15.692,15.692A15.691,15.691,0,0,1,162.865.228Zm5.967,18.252a3.117,3.117,0,0,0-.757-2.2,3.7,3.7,0,0,0-2.016-1.082V15.123a2.934,2.934,0,0,0,1.371-1.144,3.2,3.2,0,0,0,.5-1.77,3.114,3.114,0,0,0-.362-1.518,2.634,2.634,0,0,0-1.091-1.05,4.305,4.305,0,0,0-1.446-.477,16.4,16.4,0,0,0-2.269-.115h-4.8v13.6H163.4a8.817,8.817,0,0,0,2.332-.256,4.793,4.793,0,0,0,1.686-.857,3.641,3.641,0,0,0,1.032-1.268,3.941,3.941,0,0,0,.383-1.783h0Zm-4.372-5.585a1.543,1.543,0,0,0-.169-0.677,1.008,1.008,0,0,0-.527-0.5,2.105,2.105,0,0,0-.8-0.162q-0.462-.014-1.374-0.013h-0.237v2.877h0.43c0.583,0,.994-0.006,1.228-0.019a2,2,0,0,0,.727-0.19,1.1,1.1,0,0,0,.563-0.53,1.89,1.89,0,0,0,.157-0.786h0Zm0.856,5.523a1.647,1.647,0,0,0-.255-0.985,1.536,1.536,0,0,0-.767-0.539,2.537,2.537,0,0,0-.853-0.134c-0.362-.01-0.849-0.013-1.456-0.013h-0.63v3.4h0.184q1.332,0,1.842-.019a2.878,2.878,0,0,0,1.041-.245,1.363,1.363,0,0,0,.68-0.589A1.789,1.789,0,0,0,165.316,18.417ZM113.49,0.009A15.489,15.489,0,1,1,97.986,15.5,15.5,15.5,0,0,1,113.49.009Zm0.764,24.667V15.5h2.71l0.281-3.049h-2.991l0-1.832c0-.882.084-1.24,1.351-1.24h1.742V6h-2.758c-3.255,0-4.034,1.526-4.034,4.286v2.17h-1.866V15.5h1.866v9.171h3.694ZM64.49,0.009A15.489,15.489,0,1,1,48.986,15.5,15.5,15.5,0,0,1,64.49.009Zm6.2,23.3a1.723,1.723,0,0,0,1.724-1.722V9.44a1.723,1.723,0,0,0-1.724-1.722H58.506A1.723,1.723,0,0,0,56.782,9.44V21.592a1.723,1.723,0,0,0,1.724,1.722H70.686ZM69.328,14.33a4.863,4.863,0,1,1-9.415,0H58.55v6.7a0.6,0.6,0,0,0,.6.6H70.087a0.6,0.6,0,0,0,.6-0.6v-6.7S70.2,14.332,69.328,14.33Zm-4.707-1.584a2.917,2.917,0,0,1,3.029,2.8,2.918,2.918,0,0,1-3.029,2.8A2.8,2.8,0,1,1,64.621,12.746Zm3.654-3.273h1.842a0.6,0.6,0,0,1,.6.6v1.84a0.6,0.6,0,0,1-.6.6H68.275a0.6,0.6,0,0,1-.6-0.6v-1.84A0.6,0.6,0,0,1,68.275,9.473ZM15.49,0.009A15.489,15.489,0,1,1-.014,15.5,15.5,15.5,0,0,1,15.49.009ZM24.518,10.68a7.218,7.218,0,0,1-2.067.566,3.607,3.607,0,0,0,1.582-1.989,7.2,7.2,0,0,1-2.285.872,3.6,3.6,0,0,0-6.132,3.279A10.222,10.222,0,0,1,8.2,9.652a3.6,3.6,0,0,0,1.114,4.8A3.585,3.585,0,0,1,7.682,14c0,0.015,0,.03,0,0.045a3.6,3.6,0,0,0,2.887,3.525,3.612,3.612,0,0,1-1.625.062,3.6,3.6,0,0,0,3.362,2.5,7.272,7.272,0,0,1-5.328,1.489,10.237,10.237,0,0,0,15.756-8.614q0-.234-0.011-0.465A7.312,7.312,0,0,0,24.518,10.68Z"/>
</svg>
